<?xml version="1.0" encoding="UTF-8" standalone="no"?>
<!DOCTYPE svg PUBLIC "-//W3C//DTD SVG 1.1//EN" "http://www.w3.org/Graphics/SVG/1.1/DTD/svg11.dtd">
<svg width="100%" height="100%" viewBox="0 0 460 295" version="1.1" xmlns="http://www.w3.org/2000/svg" xmlns:xlink="http://www.w3.org/1999/xlink" xml:space="preserve" xmlns:serif="http://www.serif.com/" style="fill-rule:evenodd;clip-rule:evenodd;">
    <g transform="matrix(1,0,0,1,-248.734,-112.614)">
        <path d="M282.84,133.96L500.86,133.96C515.14,133.96 526.73,145.54 526.73,159.82L526.73,372.6C526.73,386.87 515.14,398.46 500.86,398.46L282.84,398.46C268.57,398.46 256.98,386.87 256.98,372.6L256.98,159.82C256.98,145.54 268.57,133.96 282.84,133.96Z" style="fill:none;fill-rule:nonzero;stroke:rgb(136,136,136);stroke-width:4px;"/>
        <path d="M296.07,120.86L514.09,120.86C528.36,120.86 539.95,132.45 539.95,146.72L539.95,359.5C539.95,373.78 528.36,385.37 514.09,385.37L296.07,385.37C281.8,385.37 270.21,373.78 270.21,359.5L270.21,146.72C270.21,132.45 281.8,120.86 296.07,120.86Z" style="fill:none;fill-rule:nonzero;stroke:rgb(136,136,136);stroke-width:4px;"/>
        <path d="M350.48,231.51C356.24,231.51 360.95,236.22 360.95,241.98L360.95,264.24C360.95,270.01 356.24,274.72 350.48,274.72C344.72,274.72 340,270.01 340,264.24L340,241.98C340.07,236.22 344.72,231.51 350.48,231.51Z" style="fill:none;fill-rule:nonzero;stroke:rgb(136,136,136);stroke-width:4px;stroke-linecap:round;stroke-linejoin:round;"/>
        <path d="M386.88,231.51C392.64,231.51 397.35,236.22 397.35,241.98L397.35,264.24C397.35,270.01 392.64,274.72 386.88,274.72C381.12,274.72 376.4,270.01 376.4,264.24L376.4,241.98C376.47,236.22 381.12,231.51 386.88,231.51Z" style="fill:none;fill-rule:nonzero;stroke:rgb(136,136,136);stroke-width:4px;stroke-linecap:round;stroke-linejoin:round;"/>
        <path d="M303.6,231.51L314.07,231.51L314.07,274.72" style="fill:none;fill-rule:nonzero;stroke:rgb(136,136,136);stroke-width:4px;stroke-linecap:round;stroke-linejoin:round;"/>
        <path d="M303.6,274.72L324.55,274.72" style="fill:none;fill-rule:nonzero;stroke:rgb(136,136,136);stroke-width:4px;stroke-linecap:round;stroke-linejoin:round;"/>
        <path d="M412.81,231.51L423.28,231.51L423.28,274.72" style="fill:none;fill-rule:nonzero;stroke:rgb(136,136,136);stroke-width:4px;stroke-linecap:round;stroke-linejoin:round;"/>
        <path d="M412.81,274.72L433.76,274.72" style="fill:none;fill-rule:nonzero;stroke:rgb(136,136,136);stroke-width:4px;stroke-linecap:round;stroke-linejoin:round;"/>
        <path d="M459.68,231.51C465.44,231.51 470.16,236.22 470.16,241.98L470.16,264.24C470.16,270.01 465.44,274.72 459.68,274.72C453.92,274.72 449.21,270.01 449.21,264.24L449.21,241.98C449.21,236.22 453.92,231.51 459.68,231.51Z" style="fill:none;fill-rule:nonzero;stroke:rgb(136,136,136);stroke-width:4px;stroke-linecap:round;stroke-linejoin:round;"/>
        <path d="M485.61,231.51L496.08,231.51L496.08,274.72" style="fill:none;fill-rule:nonzero;stroke:rgb(136,136,136);stroke-width:4px;stroke-linecap:round;stroke-linejoin:round;"/>
        <path d="M485.61,274.72L506.56,274.72" style="fill:none;fill-rule:nonzero;stroke:rgb(136,136,136);stroke-width:4px;stroke-linecap:round;stroke-linejoin:round;"/>
        <path d="M314.07,158.51C319.84,158.51 324.55,163.22 324.55,168.98L324.55,191.24C324.55,197 319.84,201.72 314.07,201.72C308.31,201.72 303.6,197 303.6,191.24L303.6,168.98C303.6,163.22 308.31,158.51 314.07,158.51Z" style="fill:none;fill-rule:nonzero;stroke:rgb(136,136,136);stroke-width:4px;stroke-linecap:round;stroke-linejoin:round;"/>
        <path d="M386.88,158.51C392.64,158.51 397.35,163.22 397.35,168.98L397.35,191.24C397.35,197 392.64,201.72 386.88,201.72C381.12,201.72 376.4,197 376.4,191.24L376.4,168.98C376.47,163.22 381.12,158.51 386.88,158.51Z" style="fill:none;fill-rule:nonzero;stroke:rgb(136,136,136);stroke-width:4px;stroke-linecap:round;stroke-linejoin:round;"/>
        <path d="M496.08,158.51C501.85,158.51 506.56,163.22 506.56,168.98L506.56,191.24C506.56,197 501.85,201.72 496.08,201.72C490.32,201.72 485.61,197 485.61,191.24L485.61,168.98C485.61,163.22 490.32,158.51 496.08,158.51Z" style="fill:none;fill-rule:nonzero;stroke:rgb(136,136,136);stroke-width:4px;stroke-linecap:round;stroke-linejoin:round;"/>
        <path d="M340.07,158.51L350.54,158.51L350.54,201.72" style="fill:none;fill-rule:nonzero;stroke:rgb(136,136,136);stroke-width:4px;stroke-linecap:round;stroke-linejoin:round;"/>
        <path d="M340.07,201.72L361.02,201.72" style="fill:none;fill-rule:nonzero;stroke:rgb(136,136,136);stroke-width:4px;stroke-linecap:round;stroke-linejoin:round;"/>
        <path d="M412.81,158.51L423.28,158.51L423.28,201.72" style="fill:none;fill-rule:nonzero;stroke:rgb(136,136,136);stroke-width:4px;stroke-linecap:round;stroke-linejoin:round;"/>
        <path d="M412.81,201.72L433.76,201.72" style="fill:none;fill-rule:nonzero;stroke:rgb(136,136,136);stroke-width:4px;stroke-linecap:round;stroke-linejoin:round;"/>
        <path d="M449.21,158.51L459.68,158.51L459.68,201.72" style="fill:none;fill-rule:nonzero;stroke:rgb(136,136,136);stroke-width:4px;stroke-linecap:round;stroke-linejoin:round;"/>
        <path d="M449.21,201.72L470.16,201.72" style="fill:none;fill-rule:nonzero;stroke:rgb(136,136,136);stroke-width:4px;stroke-linecap:round;stroke-linejoin:round;"/>
        <path d="M461.91,304.51C467.67,304.51 472.38,309.22 472.38,314.98L472.38,337.24C472.38,343.01 467.67,347.72 461.91,347.72C456.15,347.72 451.43,343.01 451.43,337.24L451.43,314.98C451.43,309.22 456.15,304.51 461.91,304.51Z" style="fill:none;fill-rule:nonzero;stroke:rgb(136,136,136);stroke-width:4px;stroke-linecap:round;stroke-linejoin:round;"/>
        <path d="M386.75,304.51C392.51,304.51 397.22,309.22 397.22,314.98L397.22,337.24C397.22,343.01 392.51,347.72 386.75,347.72C380.99,347.72 376.27,343.01 376.27,337.24L376.27,314.98C376.27,309.22 380.99,304.51 386.75,304.51Z" style="fill:none;fill-rule:nonzero;stroke:rgb(136,136,136);stroke-width:4px;stroke-linecap:round;stroke-linejoin:round;"/>
        <path d="M424.33,304.51C430.09,304.51 434.8,309.22 434.8,314.98L434.8,337.24C434.8,343.01 430.09,347.72 424.33,347.72C418.57,347.72 413.85,343.01 413.85,337.24L413.85,314.98C413.85,309.22 418.57,304.51 424.33,304.51Z" style="fill:none;fill-rule:nonzero;stroke:rgb(136,136,136);stroke-width:4px;stroke-linecap:round;stroke-linejoin:round;"/>
        <path d="M485.61,304.51L496.08,304.51L496.08,347.72" style="fill:none;fill-rule:nonzero;stroke:rgb(136,136,136);stroke-width:4px;stroke-linecap:round;stroke-linejoin:round;"/>
        <path d="M485.61,347.72L506.56,347.72" style="fill:none;fill-rule:nonzero;stroke:rgb(136,136,136);stroke-width:4px;stroke-linecap:round;stroke-linejoin:round;"/>
        <path d="M340.07,304.51L350.54,304.51L350.54,347.72" style="fill:none;fill-rule:nonzero;stroke:rgb(136,136,136);stroke-width:4px;stroke-linecap:round;stroke-linejoin:round;"/>
        <path d="M340.07,347.72L361.02,347.72" style="fill:none;fill-rule:nonzero;stroke:rgb(136,136,136);stroke-width:4px;stroke-linecap:round;stroke-linejoin:round;"/>
        <path d="M303.6,304.51L314.07,304.51L314.07,347.72" style="fill:none;fill-rule:nonzero;stroke:rgb(136,136,136);stroke-width:4px;stroke-linecap:round;stroke-linejoin:round;"/>
        <path d="M303.6,347.72L324.55,347.72" style="fill:none;fill-rule:nonzero;stroke:rgb(136,136,136);stroke-width:4px;stroke-linecap:round;stroke-linejoin:round;"/>
    </g>
    <g transform="matrix(1,0,0,1,-248.734,-112.614)">
        <path d="M640.16,249.06C628.88,249.06 619.73,239.91 619.73,228.63C619.73,217.35 628.88,208.21 640.16,208.21C651.44,208.21 660.58,217.35 660.58,228.63C660.58,239.91 651.44,249.06 640.16,249.06Z" style="fill:none;fill-rule:nonzero;stroke:rgb(136,136,136);stroke-width:4px;"/>
        <path d="M679.84,162.1C668.56,162.1 659.42,152.96 659.42,141.67C659.42,130.39 668.56,121.25 679.84,121.25C691.12,121.25 700.27,130.39 700.27,141.67C700.27,152.96 691.12,162.1 679.84,162.1Z" style="fill:none;fill-rule:nonzero;stroke:rgb(136,136,136);stroke-width:4px;"/>
    </g>
</svg>
